<mxfile host="app.diagrams.net" modified="2023-04-12T16:37:54.023Z" agent="Mozilla/5.0 (Windows NT 10.0; Win64; x64) AppleWebKit/537.36 (KHTML, like Gecko) Chrome/111.0.0.0 Safari/537.36" etag="FQQiBq1V2WRM617jSN6v" version="21.1.5" type="device">
  <diagram id="XBptaHNUp6xFWXjbcIDQ" name="Page-1">
    <mxGraphModel dx="4090" dy="2332" grid="1" gridSize="10" guides="1" tooltips="1" connect="1" arrows="1" fold="1" page="1" pageScale="1" pageWidth="850" pageHeight="1100" math="0" shadow="0">
      <root>
        <mxCell id="0" />
        <mxCell id="1" parent="0" />
        <mxCell id="8jH8_pliTZvW4bIovDeC-4" value="" style="edgeStyle=orthogonalEdgeStyle;rounded=0;orthogonalLoop=1;jettySize=auto;html=1;" parent="1" source="QoruymZTno_trSx14cLo-2" target="QoruymZTno_trSx14cLo-5" edge="1">
          <mxGeometry relative="1" as="geometry" />
        </mxCell>
        <mxCell id="QoruymZTno_trSx14cLo-2" value="Start" style="ellipse;whiteSpace=wrap;html=1;" parent="1" vertex="1">
          <mxGeometry x="785" y="-1060" width="120" height="80" as="geometry" />
        </mxCell>
        <mxCell id="QoruymZTno_trSx14cLo-19" value="" style="edgeStyle=orthogonalEdgeStyle;rounded=0;orthogonalLoop=1;jettySize=auto;html=1;" parent="1" source="QoruymZTno_trSx14cLo-5" target="QoruymZTno_trSx14cLo-17" edge="1">
          <mxGeometry relative="1" as="geometry" />
        </mxCell>
        <mxCell id="QoruymZTno_trSx14cLo-5" value="Search deserted Island or stay put?" style="shape=parallelogram;perimeter=parallelogramPerimeter;whiteSpace=wrap;html=1;fixedSize=1;" parent="1" vertex="1">
          <mxGeometry x="740" y="-930" width="210" height="60" as="geometry" />
        </mxCell>
        <mxCell id="8jH8_pliTZvW4bIovDeC-8" value="" style="edgeStyle=orthogonalEdgeStyle;rounded=0;orthogonalLoop=1;jettySize=auto;html=1;" parent="1" source="QoruymZTno_trSx14cLo-6" target="8jH8_pliTZvW4bIovDeC-7" edge="1">
          <mxGeometry relative="1" as="geometry" />
        </mxCell>
        <mxCell id="QoruymZTno_trSx14cLo-6" value="You decide to search the island. Move east or west?" style="shape=parallelogram;perimeter=parallelogramPerimeter;whiteSpace=wrap;html=1;fixedSize=1;" parent="1" vertex="1">
          <mxGeometry x="-820" y="-810" width="165.62" height="60" as="geometry" />
        </mxCell>
        <mxCell id="8jH8_pliTZvW4bIovDeC-15" value="" style="edgeStyle=orthogonalEdgeStyle;rounded=0;orthogonalLoop=1;jettySize=auto;html=1;" parent="1" source="QoruymZTno_trSx14cLo-9" target="8jH8_pliTZvW4bIovDeC-13" edge="1">
          <mxGeometry relative="1" as="geometry" />
        </mxCell>
        <mxCell id="QoruymZTno_trSx14cLo-9" value="You decide it is safer to stay in one spot. Now you try to get comfortable." style="shape=parallelogram;perimeter=parallelogramPerimeter;whiteSpace=wrap;html=1;fixedSize=1;" parent="1" vertex="1">
          <mxGeometry x="1913.5900000000001" y="-810" width="212.81" height="60" as="geometry" />
        </mxCell>
        <mxCell id="8jH8_pliTZvW4bIovDeC-32" value="" style="edgeStyle=orthogonalEdgeStyle;rounded=0;orthogonalLoop=1;jettySize=auto;html=1;" parent="1" source="QoruymZTno_trSx14cLo-10" target="8jH8_pliTZvW4bIovDeC-30" edge="1">
          <mxGeometry relative="1" as="geometry" />
        </mxCell>
        <mxCell id="QoruymZTno_trSx14cLo-10" value="You can&#39;t fall asleep. Keep trying to sleep or build a fire?" style="shape=parallelogram;perimeter=parallelogramPerimeter;whiteSpace=wrap;html=1;fixedSize=1;" parent="1" vertex="1">
          <mxGeometry x="2194.38" y="-640" width="165.62" height="60" as="geometry" />
        </mxCell>
        <mxCell id="8jH8_pliTZvW4bIovDeC-3" value="" style="edgeStyle=orthogonalEdgeStyle;rounded=0;orthogonalLoop=1;jettySize=auto;html=1;" parent="1" source="QoruymZTno_trSx14cLo-17" target="QoruymZTno_trSx14cLo-6" edge="1">
          <mxGeometry relative="1" as="geometry" />
        </mxCell>
        <mxCell id="8jH8_pliTZvW4bIovDeC-11" value="" style="edgeStyle=orthogonalEdgeStyle;rounded=0;orthogonalLoop=1;jettySize=auto;html=1;" parent="1" source="QoruymZTno_trSx14cLo-17" target="QoruymZTno_trSx14cLo-9" edge="1">
          <mxGeometry relative="1" as="geometry" />
        </mxCell>
        <mxCell id="QoruymZTno_trSx14cLo-17" value="Search Island or stay put?" style="rhombus;whiteSpace=wrap;html=1;fillColor=#d5e8d4;strokeColor=#82b366;" parent="1" vertex="1">
          <mxGeometry x="787.5" y="-820" width="115" height="80" as="geometry" />
        </mxCell>
        <mxCell id="8jH8_pliTZvW4bIovDeC-5" value="Search Island" style="text;html=1;align=center;verticalAlign=middle;resizable=0;points=[];autosize=1;strokeColor=none;fillColor=none;" parent="1" vertex="1">
          <mxGeometry x="673.24" y="-810" width="100" height="30" as="geometry" />
        </mxCell>
        <mxCell id="eR0dO_5wLCq7IYi2tpXj-3" value="" style="edgeStyle=orthogonalEdgeStyle;rounded=0;orthogonalLoop=1;jettySize=auto;html=1;" parent="1" source="8jH8_pliTZvW4bIovDeC-7" target="eR0dO_5wLCq7IYi2tpXj-2" edge="1">
          <mxGeometry relative="1" as="geometry" />
        </mxCell>
        <mxCell id="eR0dO_5wLCq7IYi2tpXj-5" value="" style="edgeStyle=orthogonalEdgeStyle;rounded=0;orthogonalLoop=1;jettySize=auto;html=1;" parent="1" source="8jH8_pliTZvW4bIovDeC-7" target="eR0dO_5wLCq7IYi2tpXj-4" edge="1">
          <mxGeometry relative="1" as="geometry" />
        </mxCell>
        <mxCell id="8jH8_pliTZvW4bIovDeC-7" value="East or west?" style="rhombus;whiteSpace=wrap;html=1;fillColor=#d5e8d4;strokeColor=#82b366;" parent="1" vertex="1">
          <mxGeometry x="-777.19" y="-690" width="80" height="80" as="geometry" />
        </mxCell>
        <mxCell id="8jH8_pliTZvW4bIovDeC-12" value="Stay Put" style="text;html=1;align=center;verticalAlign=middle;resizable=0;points=[];autosize=1;strokeColor=none;fillColor=none;" parent="1" vertex="1">
          <mxGeometry x="930" y="-810" width="70" height="30" as="geometry" />
        </mxCell>
        <mxCell id="8jH8_pliTZvW4bIovDeC-16" value="" style="edgeStyle=orthogonalEdgeStyle;rounded=0;orthogonalLoop=1;jettySize=auto;html=1;" parent="1" source="8jH8_pliTZvW4bIovDeC-13" target="QoruymZTno_trSx14cLo-10" edge="1">
          <mxGeometry relative="1" as="geometry" />
        </mxCell>
        <mxCell id="8jH8_pliTZvW4bIovDeC-25" value="" style="edgeStyle=orthogonalEdgeStyle;rounded=0;orthogonalLoop=1;jettySize=auto;html=1;" parent="1" source="8jH8_pliTZvW4bIovDeC-13" target="8jH8_pliTZvW4bIovDeC-24" edge="1">
          <mxGeometry relative="1" as="geometry" />
        </mxCell>
        <mxCell id="8jH8_pliTZvW4bIovDeC-13" value="Build a fire or sleep on the ground?" style="rhombus;whiteSpace=wrap;html=1;fillColor=#d5e8d4;strokeColor=#82b366;" parent="1" vertex="1">
          <mxGeometry x="1960" y="-650" width="120" height="80" as="geometry" />
        </mxCell>
        <mxCell id="8jH8_pliTZvW4bIovDeC-21" value="Sleep on&amp;nbsp;ground" style="text;html=1;align=center;verticalAlign=middle;resizable=0;points=[];autosize=1;strokeColor=none;fillColor=none;" parent="1" vertex="1">
          <mxGeometry x="2070" y="-640" width="110" height="30" as="geometry" />
        </mxCell>
        <mxCell id="8jH8_pliTZvW4bIovDeC-22" value="Build a fire" style="text;html=1;align=center;verticalAlign=middle;resizable=0;points=[];autosize=1;strokeColor=none;fillColor=none;" parent="1" vertex="1">
          <mxGeometry x="1825.62" y="-640" width="80" height="30" as="geometry" />
        </mxCell>
        <mxCell id="8jH8_pliTZvW4bIovDeC-39" value="" style="edgeStyle=orthogonalEdgeStyle;rounded=0;orthogonalLoop=1;jettySize=auto;html=1;" parent="1" source="8jH8_pliTZvW4bIovDeC-24" target="8jH8_pliTZvW4bIovDeC-38" edge="1">
          <mxGeometry relative="1" as="geometry" />
        </mxCell>
        <mxCell id="8jH8_pliTZvW4bIovDeC-24" value="It is too cold, so you start building a fire pit. You need wood and fuel." style="shape=parallelogram;perimeter=parallelogramPerimeter;whiteSpace=wrap;html=1;fixedSize=1;" parent="1" vertex="1">
          <mxGeometry x="1740" y="-510" width="165.62" height="60" as="geometry" />
        </mxCell>
        <mxCell id="8jH8_pliTZvW4bIovDeC-31" value="" style="edgeStyle=orthogonalEdgeStyle;rounded=0;orthogonalLoop=1;jettySize=auto;html=1;" parent="1" source="8jH8_pliTZvW4bIovDeC-30" target="8jH8_pliTZvW4bIovDeC-24" edge="1">
          <mxGeometry relative="1" as="geometry" />
        </mxCell>
        <mxCell id="8jH8_pliTZvW4bIovDeC-30" value="Build a fire or sleep on the ground?" style="rhombus;whiteSpace=wrap;html=1;fillColor=#d5e8d4;strokeColor=#82b366;" parent="1" vertex="1">
          <mxGeometry x="2212.19" y="-520" width="130" height="80" as="geometry" />
        </mxCell>
        <mxCell id="8jH8_pliTZvW4bIovDeC-33" value="Build a fire" style="text;html=1;align=center;verticalAlign=middle;resizable=0;points=[];autosize=1;strokeColor=none;fillColor=none;" parent="1" vertex="1">
          <mxGeometry x="2135" y="-510" width="80" height="30" as="geometry" />
        </mxCell>
        <mxCell id="8jH8_pliTZvW4bIovDeC-43" value="" style="edgeStyle=orthogonalEdgeStyle;rounded=0;orthogonalLoop=1;jettySize=auto;html=1;exitX=1;exitY=0.5;exitDx=0;exitDy=0;" parent="1" source="8jH8_pliTZvW4bIovDeC-37" target="8jH8_pliTZvW4bIovDeC-41" edge="1">
          <mxGeometry relative="1" as="geometry">
            <Array as="points">
              <mxPoint x="1465" y="-380" />
            </Array>
          </mxGeometry>
        </mxCell>
        <mxCell id="8jH8_pliTZvW4bIovDeC-37" value="You see a big tree and small tree" style="shape=parallelogram;perimeter=parallelogramPerimeter;whiteSpace=wrap;html=1;fixedSize=1;" parent="1" vertex="1">
          <mxGeometry x="1390" y="-410" width="150" height="60" as="geometry" />
        </mxCell>
        <mxCell id="8jH8_pliTZvW4bIovDeC-40" value="" style="edgeStyle=orthogonalEdgeStyle;rounded=0;orthogonalLoop=1;jettySize=auto;html=1;" parent="1" source="8jH8_pliTZvW4bIovDeC-38" target="8jH8_pliTZvW4bIovDeC-37" edge="1">
          <mxGeometry relative="1" as="geometry" />
        </mxCell>
        <mxCell id="8jH8_pliTZvW4bIovDeC-59" value="" style="edgeStyle=orthogonalEdgeStyle;rounded=0;orthogonalLoop=1;jettySize=auto;html=1;" parent="1" source="8jH8_pliTZvW4bIovDeC-38" target="8jH8_pliTZvW4bIovDeC-58" edge="1">
          <mxGeometry relative="1" as="geometry" />
        </mxCell>
        <mxCell id="8jH8_pliTZvW4bIovDeC-38" value="Gather wood first or gather fuel first?" style="rhombus;whiteSpace=wrap;html=1;fillColor=#d5e8d4;strokeColor=#82b366;" parent="1" vertex="1">
          <mxGeometry x="1759.31" y="-420" width="127" height="80" as="geometry" />
        </mxCell>
        <mxCell id="8jH8_pliTZvW4bIovDeC-46" value="" style="edgeStyle=orthogonalEdgeStyle;rounded=0;orthogonalLoop=1;jettySize=auto;html=1;" parent="1" source="8jH8_pliTZvW4bIovDeC-41" target="8jH8_pliTZvW4bIovDeC-44" edge="1">
          <mxGeometry relative="1" as="geometry" />
        </mxCell>
        <mxCell id="8jH8_pliTZvW4bIovDeC-47" value="" style="edgeStyle=orthogonalEdgeStyle;rounded=0;orthogonalLoop=1;jettySize=auto;html=1;" parent="1" source="8jH8_pliTZvW4bIovDeC-41" target="8jH8_pliTZvW4bIovDeC-45" edge="1">
          <mxGeometry relative="1" as="geometry" />
        </mxCell>
        <mxCell id="8jH8_pliTZvW4bIovDeC-41" value="Chop down small tree or big tree?" style="rhombus;whiteSpace=wrap;html=1;fillColor=#d5e8d4;strokeColor=#82b366;" parent="1" vertex="1">
          <mxGeometry x="1405" y="-280" width="120" height="80" as="geometry" />
        </mxCell>
        <mxCell id="8jH8_pliTZvW4bIovDeC-44" value="You chop down the small tree and receive 2 sticks." style="shape=parallelogram;perimeter=parallelogramPerimeter;whiteSpace=wrap;html=1;fixedSize=1;" parent="1" vertex="1">
          <mxGeometry x="1670" y="-270" width="140" height="60" as="geometry" />
        </mxCell>
        <mxCell id="8jH8_pliTZvW4bIovDeC-55" value="" style="edgeStyle=orthogonalEdgeStyle;rounded=0;orthogonalLoop=1;jettySize=auto;html=1;" parent="1" source="8jH8_pliTZvW4bIovDeC-45" target="8jH8_pliTZvW4bIovDeC-51" edge="1">
          <mxGeometry relative="1" as="geometry" />
        </mxCell>
        <mxCell id="8jH8_pliTZvW4bIovDeC-45" value="You chop the big tree 57 times and it still won&#39;t fall" style="shape=parallelogram;perimeter=parallelogramPerimeter;whiteSpace=wrap;html=1;fixedSize=1;" parent="1" vertex="1">
          <mxGeometry x="1140" y="-270" width="150" height="60" as="geometry" />
        </mxCell>
        <mxCell id="8jH8_pliTZvW4bIovDeC-48" value="Gather wood" style="text;html=1;align=center;verticalAlign=middle;resizable=0;points=[];autosize=1;strokeColor=none;fillColor=none;" parent="1" vertex="1">
          <mxGeometry x="1670" y="-410" width="90" height="30" as="geometry" />
        </mxCell>
        <mxCell id="8jH8_pliTZvW4bIovDeC-49" value="Chop big tree" style="text;html=1;align=center;verticalAlign=middle;resizable=0;points=[];autosize=1;strokeColor=none;fillColor=none;" parent="1" vertex="1">
          <mxGeometry x="1300" y="-270" width="100" height="30" as="geometry" />
        </mxCell>
        <mxCell id="8jH8_pliTZvW4bIovDeC-50" value="Chop small tree" style="text;html=1;align=center;verticalAlign=middle;resizable=0;points=[];autosize=1;strokeColor=none;fillColor=none;" parent="1" vertex="1">
          <mxGeometry x="1570" y="-270" width="110" height="30" as="geometry" />
        </mxCell>
        <mxCell id="8jH8_pliTZvW4bIovDeC-56" value="" style="edgeStyle=orthogonalEdgeStyle;rounded=0;orthogonalLoop=1;jettySize=auto;html=1;" parent="1" source="8jH8_pliTZvW4bIovDeC-51" target="8jH8_pliTZvW4bIovDeC-54" edge="1">
          <mxGeometry relative="1" as="geometry" />
        </mxCell>
        <mxCell id="8jH8_pliTZvW4bIovDeC-57" value="" style="edgeStyle=orthogonalEdgeStyle;rounded=0;orthogonalLoop=1;jettySize=auto;html=1;" parent="1" source="8jH8_pliTZvW4bIovDeC-51" target="8jH8_pliTZvW4bIovDeC-52" edge="1">
          <mxGeometry relative="1" as="geometry" />
        </mxCell>
        <mxCell id="8jH8_pliTZvW4bIovDeC-51" value="Keep chopping?" style="rhombus;whiteSpace=wrap;html=1;fillColor=#d5e8d4;strokeColor=#82b366;" parent="1" vertex="1">
          <mxGeometry x="1175" y="-140" width="80" height="80" as="geometry" />
        </mxCell>
        <mxCell id="8jH8_pliTZvW4bIovDeC-74" value="" style="edgeStyle=orthogonalEdgeStyle;rounded=0;orthogonalLoop=1;jettySize=auto;html=1;" parent="1" source="8jH8_pliTZvW4bIovDeC-52" target="8jH8_pliTZvW4bIovDeC-73" edge="1">
          <mxGeometry relative="1" as="geometry" />
        </mxCell>
        <mxCell id="8jH8_pliTZvW4bIovDeC-52" value="You chop down the small tree and receive 2 sticks. It is now twilight." style="shape=parallelogram;perimeter=parallelogramPerimeter;whiteSpace=wrap;html=1;fixedSize=1;" parent="1" vertex="1">
          <mxGeometry x="1330" y="-130" width="160" height="60" as="geometry" />
        </mxCell>
        <mxCell id="8jH8_pliTZvW4bIovDeC-54" value="You finally cut the big tree and receive 4 logs. it is now dusk." style="shape=parallelogram;perimeter=parallelogramPerimeter;whiteSpace=wrap;html=1;fixedSize=1;" parent="1" vertex="1">
          <mxGeometry x="950" y="-130" width="140" height="60" as="geometry" />
        </mxCell>
        <mxCell id="8jH8_pliTZvW4bIovDeC-64" value="" style="edgeStyle=orthogonalEdgeStyle;rounded=0;orthogonalLoop=1;jettySize=auto;html=1;" parent="1" source="8jH8_pliTZvW4bIovDeC-58" target="8jH8_pliTZvW4bIovDeC-60" edge="1">
          <mxGeometry relative="1" as="geometry" />
        </mxCell>
        <mxCell id="8jH8_pliTZvW4bIovDeC-58" value="Miraculously you find a can of petrol and a car battery. Which one do you take?" style="shape=parallelogram;perimeter=parallelogramPerimeter;whiteSpace=wrap;html=1;fixedSize=1;" parent="1" vertex="1">
          <mxGeometry x="2080" y="-410" width="190" height="60" as="geometry" />
        </mxCell>
        <mxCell id="8jH8_pliTZvW4bIovDeC-66" value="" style="edgeStyle=orthogonalEdgeStyle;rounded=0;orthogonalLoop=1;jettySize=auto;html=1;" parent="1" source="8jH8_pliTZvW4bIovDeC-60" target="8jH8_pliTZvW4bIovDeC-65" edge="1">
          <mxGeometry relative="1" as="geometry" />
        </mxCell>
        <mxCell id="8jH8_pliTZvW4bIovDeC-60" value="Gas or Electric?" style="rhombus;whiteSpace=wrap;html=1;fillColor=#d5e8d4;strokeColor=#82b366;" parent="1" vertex="1">
          <mxGeometry x="2125" y="-290" width="100" height="70" as="geometry" />
        </mxCell>
        <mxCell id="8jH8_pliTZvW4bIovDeC-61" value="Gather fuel" style="text;html=1;align=center;verticalAlign=middle;resizable=0;points=[];autosize=1;strokeColor=none;fillColor=none;" parent="1" vertex="1">
          <mxGeometry x="1930" y="-410" width="80" height="30" as="geometry" />
        </mxCell>
        <mxCell id="8jH8_pliTZvW4bIovDeC-70" value="" style="edgeStyle=orthogonalEdgeStyle;rounded=0;orthogonalLoop=1;jettySize=auto;html=1;" parent="1" source="8jH8_pliTZvW4bIovDeC-65" target="8jH8_pliTZvW4bIovDeC-67" edge="1">
          <mxGeometry relative="1" as="geometry" />
        </mxCell>
        <mxCell id="8jH8_pliTZvW4bIovDeC-65" value="You carry back the battery and it&#39;s dark. You need light." style="shape=parallelogram;perimeter=parallelogramPerimeter;whiteSpace=wrap;html=1;fixedSize=1;" parent="1" vertex="1">
          <mxGeometry x="2345" y="-285" width="180" height="60" as="geometry" />
        </mxCell>
        <mxCell id="eR0dO_5wLCq7IYi2tpXj-52" value="" style="edgeStyle=orthogonalEdgeStyle;rounded=0;orthogonalLoop=1;jettySize=auto;html=1;" parent="1" source="8jH8_pliTZvW4bIovDeC-67" target="eR0dO_5wLCq7IYi2tpXj-51" edge="1">
          <mxGeometry relative="1" as="geometry" />
        </mxCell>
        <mxCell id="eR0dO_5wLCq7IYi2tpXj-53" value="" style="edgeStyle=orthogonalEdgeStyle;rounded=0;orthogonalLoop=1;jettySize=auto;html=1;" parent="1" source="8jH8_pliTZvW4bIovDeC-67" target="eR0dO_5wLCq7IYi2tpXj-50" edge="1">
          <mxGeometry relative="1" as="geometry" />
        </mxCell>
        <mxCell id="8jH8_pliTZvW4bIovDeC-67" value="Charge your phone or start an electrical fire?" style="rhombus;whiteSpace=wrap;html=1;fillColor=#d5e8d4;strokeColor=#82b366;" parent="1" vertex="1">
          <mxGeometry x="2360" y="-150" width="150" height="80" as="geometry" />
        </mxCell>
        <mxCell id="8jH8_pliTZvW4bIovDeC-73" value="Scavenge for fuel or try to start a fire with two sticks" style="rhombus;whiteSpace=wrap;html=1;fillColor=#d5e8d4;strokeColor=#82b366;" parent="1" vertex="1">
          <mxGeometry x="1355.5" y="50" width="110" height="80" as="geometry" />
        </mxCell>
        <mxCell id="eR0dO_5wLCq7IYi2tpXj-10" value="" style="edgeStyle=orthogonalEdgeStyle;rounded=0;orthogonalLoop=1;jettySize=auto;html=1;" parent="1" source="eR0dO_5wLCq7IYi2tpXj-2" target="eR0dO_5wLCq7IYi2tpXj-9" edge="1">
          <mxGeometry relative="1" as="geometry" />
        </mxCell>
        <mxCell id="eR0dO_5wLCq7IYi2tpXj-2" value="There is a rocky cove with a beach and coconut trees" style="shape=parallelogram;perimeter=parallelogramPerimeter;whiteSpace=wrap;html=1;fixedSize=1;" parent="1" vertex="1">
          <mxGeometry x="-1190" y="-680" width="160" height="60" as="geometry" />
        </mxCell>
        <mxCell id="eR0dO_5wLCq7IYi2tpXj-8" value="" style="edgeStyle=orthogonalEdgeStyle;rounded=0;orthogonalLoop=1;jettySize=auto;html=1;" parent="1" source="eR0dO_5wLCq7IYi2tpXj-4" target="eR0dO_5wLCq7IYi2tpXj-6" edge="1">
          <mxGeometry relative="1" as="geometry" />
        </mxCell>
        <mxCell id="eR0dO_5wLCq7IYi2tpXj-4" value="There is a forest area with some berry bushes and anthills" style="shape=parallelogram;perimeter=parallelogramPerimeter;whiteSpace=wrap;html=1;fixedSize=1;" parent="1" vertex="1">
          <mxGeometry x="-460" y="-680" width="150" height="60" as="geometry" />
        </mxCell>
        <mxCell id="eR0dO_5wLCq7IYi2tpXj-14" value="" style="edgeStyle=orthogonalEdgeStyle;rounded=0;orthogonalLoop=1;jettySize=auto;html=1;" parent="1" source="eR0dO_5wLCq7IYi2tpXj-6" target="eR0dO_5wLCq7IYi2tpXj-11" edge="1">
          <mxGeometry relative="1" as="geometry" />
        </mxCell>
        <mxCell id="eR0dO_5wLCq7IYi2tpXj-23" value="" style="edgeStyle=orthogonalEdgeStyle;rounded=0;orthogonalLoop=1;jettySize=auto;html=1;" parent="1" source="eR0dO_5wLCq7IYi2tpXj-6" target="eR0dO_5wLCq7IYi2tpXj-22" edge="1">
          <mxGeometry relative="1" as="geometry" />
        </mxCell>
        <mxCell id="eR0dO_5wLCq7IYi2tpXj-6" value="Eat berries or live ants?" style="rhombus;whiteSpace=wrap;html=1;fillColor=#d5e8d4;strokeColor=#82b366;" parent="1" vertex="1">
          <mxGeometry x="-425" y="-560" width="80" height="80" as="geometry" />
        </mxCell>
        <mxCell id="eR0dO_5wLCq7IYi2tpXj-9" value="Swim around or climb a tree?" style="rhombus;whiteSpace=wrap;html=1;fillColor=#d5e8d4;strokeColor=#82b366;" parent="1" vertex="1">
          <mxGeometry x="-1150" y="-560" width="80" height="80" as="geometry" />
        </mxCell>
        <mxCell id="eR0dO_5wLCq7IYi2tpXj-17" value="" style="edgeStyle=orthogonalEdgeStyle;rounded=0;orthogonalLoop=1;jettySize=auto;html=1;" parent="1" source="eR0dO_5wLCq7IYi2tpXj-11" target="eR0dO_5wLCq7IYi2tpXj-15" edge="1">
          <mxGeometry relative="1" as="geometry" />
        </mxCell>
        <mxCell id="eR0dO_5wLCq7IYi2tpXj-11" value="Test if it is edible or just take a bite?" style="shape=parallelogram;perimeter=parallelogramPerimeter;whiteSpace=wrap;html=1;fixedSize=1;" parent="1" vertex="1">
          <mxGeometry x="-829" y="-550" width="160" height="60" as="geometry" />
        </mxCell>
        <mxCell id="eR0dO_5wLCq7IYi2tpXj-12" value="Move east" style="text;html=1;align=center;verticalAlign=middle;resizable=0;points=[];autosize=1;strokeColor=none;fillColor=none;" parent="1" vertex="1">
          <mxGeometry x="-700" y="-685" width="80" height="30" as="geometry" />
        </mxCell>
        <mxCell id="eR0dO_5wLCq7IYi2tpXj-13" value="Move west" style="text;html=1;align=center;verticalAlign=middle;resizable=0;points=[];autosize=1;strokeColor=none;fillColor=none;" parent="1" vertex="1">
          <mxGeometry x="-870" y="-685" width="80" height="30" as="geometry" />
        </mxCell>
        <mxCell id="eR0dO_5wLCq7IYi2tpXj-20" value="" style="edgeStyle=orthogonalEdgeStyle;rounded=0;orthogonalLoop=1;jettySize=auto;html=1;" parent="1" source="eR0dO_5wLCq7IYi2tpXj-15" target="eR0dO_5wLCq7IYi2tpXj-18" edge="1">
          <mxGeometry relative="1" as="geometry" />
        </mxCell>
        <mxCell id="eR0dO_5wLCq7IYi2tpXj-21" value="" style="edgeStyle=orthogonalEdgeStyle;rounded=0;orthogonalLoop=1;jettySize=auto;html=1;" parent="1" source="eR0dO_5wLCq7IYi2tpXj-15" target="eR0dO_5wLCq7IYi2tpXj-19" edge="1">
          <mxGeometry relative="1" as="geometry" />
        </mxCell>
        <mxCell id="eR0dO_5wLCq7IYi2tpXj-15" value="Eat or check for allergies" style="rhombus;whiteSpace=wrap;html=1;fillColor=#d5e8d4;strokeColor=#82b366;" parent="1" vertex="1">
          <mxGeometry x="-789" y="-460" width="80" height="80" as="geometry" />
        </mxCell>
        <mxCell id="7n9XsmgkcL3LPUVpxS1G-103" value="" style="edgeStyle=orthogonalEdgeStyle;rounded=0;orthogonalLoop=1;jettySize=auto;html=1;" parent="1" source="eR0dO_5wLCq7IYi2tpXj-18" target="eR0dO_5wLCq7IYi2tpXj-45" edge="1">
          <mxGeometry relative="1" as="geometry" />
        </mxCell>
        <mxCell id="eR0dO_5wLCq7IYi2tpXj-18" value="You have an allergic reaction and decide to throw the berries away." style="shape=parallelogram;perimeter=parallelogramPerimeter;whiteSpace=wrap;html=1;fixedSize=1;" parent="1" vertex="1">
          <mxGeometry x="-570" y="-450" width="160" height="60" as="geometry" />
        </mxCell>
        <mxCell id="eR0dO_5wLCq7IYi2tpXj-19" value="Your throat closes up and you find it hard to breathe. Die of suffocation" style="shape=parallelogram;perimeter=parallelogramPerimeter;whiteSpace=wrap;html=1;fixedSize=1;" parent="1" vertex="1">
          <mxGeometry x="-1069" y="-450" width="170" height="60" as="geometry" />
        </mxCell>
        <mxCell id="eR0dO_5wLCq7IYi2tpXj-31" value="" style="edgeStyle=orthogonalEdgeStyle;rounded=0;orthogonalLoop=1;jettySize=auto;html=1;" parent="1" source="eR0dO_5wLCq7IYi2tpXj-22" target="eR0dO_5wLCq7IYi2tpXj-30" edge="1">
          <mxGeometry relative="1" as="geometry" />
        </mxCell>
        <mxCell id="eR0dO_5wLCq7IYi2tpXj-22" value="You&#39;re going to eat ants. Red ants or black ants?" style="shape=parallelogram;perimeter=parallelogramPerimeter;whiteSpace=wrap;html=1;fixedSize=1;" parent="1" vertex="1">
          <mxGeometry x="140" y="-550" width="160" height="60" as="geometry" />
        </mxCell>
        <mxCell id="eR0dO_5wLCq7IYi2tpXj-26" value="Eat ants" style="text;html=1;align=center;verticalAlign=middle;resizable=0;points=[];autosize=1;strokeColor=none;fillColor=none;" parent="1" vertex="1">
          <mxGeometry x="-340" y="-550" width="70" height="30" as="geometry" />
        </mxCell>
        <mxCell id="eR0dO_5wLCq7IYi2tpXj-27" value="Eat berries" style="text;html=1;align=center;verticalAlign=middle;resizable=0;points=[];autosize=1;strokeColor=none;fillColor=none;" parent="1" vertex="1">
          <mxGeometry x="-505" y="-550" width="80" height="30" as="geometry" />
        </mxCell>
        <mxCell id="eR0dO_5wLCq7IYi2tpXj-28" value="Test for poison" style="text;html=1;align=center;verticalAlign=middle;resizable=0;points=[];autosize=1;strokeColor=none;fillColor=none;" parent="1" vertex="1">
          <mxGeometry x="-709" y="-450" width="100" height="30" as="geometry" />
        </mxCell>
        <mxCell id="eR0dO_5wLCq7IYi2tpXj-29" value="Eat without checking" style="text;html=1;align=center;verticalAlign=middle;resizable=0;points=[];autosize=1;strokeColor=none;fillColor=none;" parent="1" vertex="1">
          <mxGeometry x="-913.38" y="-450" width="140" height="30" as="geometry" />
        </mxCell>
        <mxCell id="7n9XsmgkcL3LPUVpxS1G-116" value="" style="edgeStyle=orthogonalEdgeStyle;rounded=0;orthogonalLoop=1;jettySize=auto;html=1;" parent="1" source="eR0dO_5wLCq7IYi2tpXj-30" target="7n9XsmgkcL3LPUVpxS1G-115" edge="1">
          <mxGeometry relative="1" as="geometry" />
        </mxCell>
        <mxCell id="7n9XsmgkcL3LPUVpxS1G-117" value="" style="edgeStyle=orthogonalEdgeStyle;rounded=0;orthogonalLoop=1;jettySize=auto;html=1;" parent="1" source="eR0dO_5wLCq7IYi2tpXj-30" target="eR0dO_5wLCq7IYi2tpXj-32" edge="1">
          <mxGeometry relative="1" as="geometry" />
        </mxCell>
        <mxCell id="eR0dO_5wLCq7IYi2tpXj-30" value="Red or black ants?" style="rhombus;whiteSpace=wrap;html=1;fillColor=#d5e8d4;strokeColor=#82b366;" parent="1" vertex="1">
          <mxGeometry x="180" y="-420" width="80" height="80" as="geometry" />
        </mxCell>
        <mxCell id="eR0dO_5wLCq7IYi2tpXj-32" value="" style="shape=parallelogram;perimeter=parallelogramPerimeter;whiteSpace=wrap;html=1;fixedSize=1;" parent="1" vertex="1">
          <mxGeometry x="320" y="-410" width="150" height="60" as="geometry" />
        </mxCell>
        <mxCell id="eR0dO_5wLCq7IYi2tpXj-49" value="" style="edgeStyle=orthogonalEdgeStyle;rounded=0;orthogonalLoop=1;jettySize=auto;html=1;" parent="1" source="eR0dO_5wLCq7IYi2tpXj-45" edge="1">
          <mxGeometry relative="1" as="geometry">
            <mxPoint x="-697.19" y="-280" as="targetPoint" />
          </mxGeometry>
        </mxCell>
        <mxCell id="eR0dO_5wLCq7IYi2tpXj-54" value="" style="edgeStyle=orthogonalEdgeStyle;rounded=0;orthogonalLoop=1;jettySize=auto;html=1;" parent="1" source="eR0dO_5wLCq7IYi2tpXj-45" target="eR0dO_5wLCq7IYi2tpXj-47" edge="1">
          <mxGeometry relative="1" as="geometry" />
        </mxCell>
        <mxCell id="eR0dO_5wLCq7IYi2tpXj-45" value="Throw off cliff or into water?" style="rhombus;whiteSpace=wrap;html=1;fillColor=#d5e8d4;strokeColor=#82b366;" parent="1" vertex="1">
          <mxGeometry x="-530" y="-320" width="80" height="80" as="geometry" />
        </mxCell>
        <mxCell id="7n9XsmgkcL3LPUVpxS1G-104" value="" style="edgeStyle=orthogonalEdgeStyle;rounded=0;orthogonalLoop=1;jettySize=auto;html=1;" parent="1" source="eR0dO_5wLCq7IYi2tpXj-47" target="eR0dO_5wLCq7IYi2tpXj-60" edge="1">
          <mxGeometry relative="1" as="geometry" />
        </mxCell>
        <mxCell id="eR0dO_5wLCq7IYi2tpXj-47" value="You throw the berries off a very tall cliff but fall off as well" style="shape=parallelogram;perimeter=parallelogramPerimeter;whiteSpace=wrap;html=1;fixedSize=1;" parent="1" vertex="1">
          <mxGeometry x="-343.19" y="-310" width="170" height="60" as="geometry" />
        </mxCell>
        <mxCell id="eR0dO_5wLCq7IYi2tpXj-48" value="You throw the berries into a rocky cove but fall into the water" style="shape=parallelogram;perimeter=parallelogramPerimeter;whiteSpace=wrap;html=1;fixedSize=1;" parent="1" vertex="1">
          <mxGeometry x="-809" y="-310" width="120" height="60" as="geometry" />
        </mxCell>
        <mxCell id="eR0dO_5wLCq7IYi2tpXj-50" value="You start an electrical fire for light, and suffer lethal burns and instant death." style="ellipse;whiteSpace=wrap;html=1;fillColor=#dae8fc;strokeColor=#6c8ebf;" parent="1" vertex="1">
          <mxGeometry x="2610" y="-150" width="170" height="80" as="geometry" />
        </mxCell>
        <mxCell id="eR0dO_5wLCq7IYi2tpXj-51" value="Your phone charges and you call for an Uber boat. The end" style="ellipse;whiteSpace=wrap;html=1;fillColor=#dae8fc;strokeColor=#6c8ebf;" parent="1" vertex="1">
          <mxGeometry x="2110" y="-150" width="150" height="80" as="geometry" />
        </mxCell>
        <mxCell id="eR0dO_5wLCq7IYi2tpXj-76" value="" style="edgeStyle=orthogonalEdgeStyle;rounded=0;orthogonalLoop=1;jettySize=auto;html=1;" parent="1" source="eR0dO_5wLCq7IYi2tpXj-60" target="eR0dO_5wLCq7IYi2tpXj-75" edge="1">
          <mxGeometry relative="1" as="geometry" />
        </mxCell>
        <mxCell id="7n9XsmgkcL3LPUVpxS1G-106" value="" style="edgeStyle=orthogonalEdgeStyle;rounded=0;orthogonalLoop=1;jettySize=auto;html=1;" parent="1" source="eR0dO_5wLCq7IYi2tpXj-60" target="eR0dO_5wLCq7IYi2tpXj-66" edge="1">
          <mxGeometry relative="1" as="geometry" />
        </mxCell>
        <mxCell id="eR0dO_5wLCq7IYi2tpXj-60" value="Fall legs-first or head-first?" style="rhombus;whiteSpace=wrap;html=1;fillColor=#d5e8d4;strokeColor=#82b366;" parent="1" vertex="1">
          <mxGeometry x="-318.19" y="-190" width="120" height="80" as="geometry" />
        </mxCell>
        <mxCell id="7n9XsmgkcL3LPUVpxS1G-108" value="" style="edgeStyle=orthogonalEdgeStyle;rounded=0;orthogonalLoop=1;jettySize=auto;html=1;" parent="1" source="eR0dO_5wLCq7IYi2tpXj-66" target="7n9XsmgkcL3LPUVpxS1G-1" edge="1">
          <mxGeometry relative="1" as="geometry" />
        </mxCell>
        <mxCell id="eR0dO_5wLCq7IYi2tpXj-66" value="You break both legs in your fall but survive." style="shape=parallelogram;perimeter=parallelogramPerimeter;whiteSpace=wrap;html=1;fixedSize=1;" parent="1" vertex="1">
          <mxGeometry x="-100" y="-180" width="150" height="60" as="geometry" />
        </mxCell>
        <mxCell id="eR0dO_5wLCq7IYi2tpXj-68" value="Throw into water" style="text;html=1;align=center;verticalAlign=middle;resizable=0;points=[];autosize=1;strokeColor=none;fillColor=none;" parent="1" vertex="1">
          <mxGeometry x="-662.19" y="-310" width="110" height="30" as="geometry" />
        </mxCell>
        <mxCell id="eR0dO_5wLCq7IYi2tpXj-73" value="Head-first" style="text;html=1;align=center;verticalAlign=middle;resizable=0;points=[];autosize=1;strokeColor=none;fillColor=none;" parent="1" vertex="1">
          <mxGeometry x="-416" y="-180" width="80" height="30" as="geometry" />
        </mxCell>
        <mxCell id="eR0dO_5wLCq7IYi2tpXj-75" value="You fall head-first, breaking your neck and suffering instant death" style="ellipse;whiteSpace=wrap;html=1;fillColor=#dae8fc;strokeColor=#6c8ebf;" parent="1" vertex="1">
          <mxGeometry x="-595" y="-190" width="130" height="80" as="geometry" />
        </mxCell>
        <mxCell id="7n9XsmgkcL3LPUVpxS1G-110" value="" style="edgeStyle=orthogonalEdgeStyle;rounded=0;orthogonalLoop=1;jettySize=auto;html=1;" parent="1" source="7n9XsmgkcL3LPUVpxS1G-1" target="7n9XsmgkcL3LPUVpxS1G-109" edge="1">
          <mxGeometry relative="1" as="geometry" />
        </mxCell>
        <mxCell id="7n9XsmgkcL3LPUVpxS1G-1" value="Stay still or crawl around" style="rhombus;whiteSpace=wrap;html=1;fillColor=#d5e8d4;strokeColor=#82b366;" parent="1" vertex="1">
          <mxGeometry x="-65" y="-50" width="80" height="80" as="geometry" />
        </mxCell>
        <mxCell id="7n9XsmgkcL3LPUVpxS1G-18" value="" style="edgeStyle=orthogonalEdgeStyle;rounded=0;orthogonalLoop=1;jettySize=auto;html=1;" parent="1" target="7n9XsmgkcL3LPUVpxS1G-36" edge="1">
          <mxGeometry relative="1" as="geometry">
            <mxPoint x="-5.115907697472721e-13" y="-10" as="sourcePoint" />
          </mxGeometry>
        </mxCell>
        <mxCell id="7n9XsmgkcL3LPUVpxS1G-20" value="" style="edgeStyle=orthogonalEdgeStyle;rounded=0;orthogonalLoop=1;jettySize=auto;html=1;" parent="1" source="7n9XsmgkcL3LPUVpxS1G-22" target="7n9XsmgkcL3LPUVpxS1G-23" edge="1">
          <mxGeometry relative="1" as="geometry" />
        </mxCell>
        <mxCell id="7n9XsmgkcL3LPUVpxS1G-21" value="" style="edgeStyle=orthogonalEdgeStyle;rounded=0;orthogonalLoop=1;jettySize=auto;html=1;" parent="1" source="7n9XsmgkcL3LPUVpxS1G-22" target="7n9XsmgkcL3LPUVpxS1G-25" edge="1">
          <mxGeometry relative="1" as="geometry" />
        </mxCell>
        <mxCell id="7n9XsmgkcL3LPUVpxS1G-22" value="Chop down small tree or big tree?" style="rhombus;whiteSpace=wrap;html=1;fillColor=#d5e8d4;strokeColor=#82b366;" parent="1" vertex="1">
          <mxGeometry x="-430" y="100" width="120" height="80" as="geometry" />
        </mxCell>
        <mxCell id="7n9XsmgkcL3LPUVpxS1G-23" value="You chop down the small tree and receive 2 sticks." style="shape=parallelogram;perimeter=parallelogramPerimeter;whiteSpace=wrap;html=1;fixedSize=1;" parent="1" vertex="1">
          <mxGeometry x="-165" y="110" width="140" height="60" as="geometry" />
        </mxCell>
        <mxCell id="7n9XsmgkcL3LPUVpxS1G-24" value="" style="edgeStyle=orthogonalEdgeStyle;rounded=0;orthogonalLoop=1;jettySize=auto;html=1;" parent="1" source="7n9XsmgkcL3LPUVpxS1G-25" target="7n9XsmgkcL3LPUVpxS1G-31" edge="1">
          <mxGeometry relative="1" as="geometry" />
        </mxCell>
        <mxCell id="7n9XsmgkcL3LPUVpxS1G-25" value="You chop the big tree 57 times and it still won&#39;t fall" style="shape=parallelogram;perimeter=parallelogramPerimeter;whiteSpace=wrap;html=1;fixedSize=1;" parent="1" vertex="1">
          <mxGeometry x="-695" y="110" width="150" height="60" as="geometry" />
        </mxCell>
        <mxCell id="7n9XsmgkcL3LPUVpxS1G-26" value="Stay still" style="text;html=1;align=center;verticalAlign=middle;resizable=0;points=[];autosize=1;strokeColor=none;fillColor=none;" parent="1" vertex="1">
          <mxGeometry x="-156" y="-30" width="70" height="30" as="geometry" />
        </mxCell>
        <mxCell id="7n9XsmgkcL3LPUVpxS1G-27" value="Chop big tree" style="text;html=1;align=center;verticalAlign=middle;resizable=0;points=[];autosize=1;strokeColor=none;fillColor=none;" parent="1" vertex="1">
          <mxGeometry x="-535" y="110" width="100" height="30" as="geometry" />
        </mxCell>
        <mxCell id="7n9XsmgkcL3LPUVpxS1G-28" value="Chop small tree" style="text;html=1;align=center;verticalAlign=middle;resizable=0;points=[];autosize=1;strokeColor=none;fillColor=none;" parent="1" vertex="1">
          <mxGeometry x="-265" y="110" width="110" height="30" as="geometry" />
        </mxCell>
        <mxCell id="7n9XsmgkcL3LPUVpxS1G-29" value="" style="edgeStyle=orthogonalEdgeStyle;rounded=0;orthogonalLoop=1;jettySize=auto;html=1;" parent="1" source="7n9XsmgkcL3LPUVpxS1G-31" target="7n9XsmgkcL3LPUVpxS1G-34" edge="1">
          <mxGeometry relative="1" as="geometry" />
        </mxCell>
        <mxCell id="7n9XsmgkcL3LPUVpxS1G-30" value="" style="edgeStyle=orthogonalEdgeStyle;rounded=0;orthogonalLoop=1;jettySize=auto;html=1;" parent="1" source="7n9XsmgkcL3LPUVpxS1G-31" target="7n9XsmgkcL3LPUVpxS1G-33" edge="1">
          <mxGeometry relative="1" as="geometry" />
        </mxCell>
        <mxCell id="7n9XsmgkcL3LPUVpxS1G-31" value="Keep chopping?" style="rhombus;whiteSpace=wrap;html=1;fillColor=#d5e8d4;strokeColor=#82b366;" parent="1" vertex="1">
          <mxGeometry x="-660" y="240" width="80" height="80" as="geometry" />
        </mxCell>
        <mxCell id="7n9XsmgkcL3LPUVpxS1G-32" value="" style="edgeStyle=orthogonalEdgeStyle;rounded=0;orthogonalLoop=1;jettySize=auto;html=1;" parent="1" source="7n9XsmgkcL3LPUVpxS1G-33" target="7n9XsmgkcL3LPUVpxS1G-45" edge="1">
          <mxGeometry relative="1" as="geometry" />
        </mxCell>
        <mxCell id="7n9XsmgkcL3LPUVpxS1G-33" value="You chop down the small tree and receive 2 sticks. It is now twilight." style="shape=parallelogram;perimeter=parallelogramPerimeter;whiteSpace=wrap;html=1;fixedSize=1;" parent="1" vertex="1">
          <mxGeometry x="-505" y="250" width="160" height="60" as="geometry" />
        </mxCell>
        <mxCell id="7n9XsmgkcL3LPUVpxS1G-34" value="You finally cut the big tree and receive 4 logs. it is now dusk." style="shape=parallelogram;perimeter=parallelogramPerimeter;whiteSpace=wrap;html=1;fixedSize=1;" parent="1" vertex="1">
          <mxGeometry x="-885" y="250" width="140" height="60" as="geometry" />
        </mxCell>
        <mxCell id="7n9XsmgkcL3LPUVpxS1G-35" value="" style="edgeStyle=orthogonalEdgeStyle;rounded=0;orthogonalLoop=1;jettySize=auto;html=1;" parent="1" source="7n9XsmgkcL3LPUVpxS1G-36" target="7n9XsmgkcL3LPUVpxS1G-38" edge="1">
          <mxGeometry relative="1" as="geometry" />
        </mxCell>
        <mxCell id="7n9XsmgkcL3LPUVpxS1G-36" value="You cannot move your legs so you look for things on the ground that may help" style="shape=parallelogram;perimeter=parallelogramPerimeter;whiteSpace=wrap;html=1;fixedSize=1;" parent="1" vertex="1">
          <mxGeometry x="135" y="-40" width="190" height="60" as="geometry" />
        </mxCell>
        <mxCell id="7n9XsmgkcL3LPUVpxS1G-37" value="" style="edgeStyle=orthogonalEdgeStyle;rounded=0;orthogonalLoop=1;jettySize=auto;html=1;" parent="1" source="7n9XsmgkcL3LPUVpxS1G-38" target="7n9XsmgkcL3LPUVpxS1G-41" edge="1">
          <mxGeometry relative="1" as="geometry" />
        </mxCell>
        <mxCell id="7n9XsmgkcL3LPUVpxS1G-38" value="Look left or right?" style="rhombus;whiteSpace=wrap;html=1;fillColor=#d5e8d4;strokeColor=#82b366;" parent="1" vertex="1">
          <mxGeometry x="180" y="80" width="100" height="70" as="geometry" />
        </mxCell>
        <mxCell id="7n9XsmgkcL3LPUVpxS1G-39" value="Crawl around" style="text;html=1;align=center;verticalAlign=middle;resizable=0;points=[];autosize=1;strokeColor=none;fillColor=none;" parent="1" vertex="1">
          <mxGeometry x="30" y="-30" width="90" height="30" as="geometry" />
        </mxCell>
        <mxCell id="7n9XsmgkcL3LPUVpxS1G-40" value="" style="edgeStyle=orthogonalEdgeStyle;rounded=0;orthogonalLoop=1;jettySize=auto;html=1;" parent="1" source="7n9XsmgkcL3LPUVpxS1G-41" target="7n9XsmgkcL3LPUVpxS1G-44" edge="1">
          <mxGeometry relative="1" as="geometry" />
        </mxCell>
        <mxCell id="7n9XsmgkcL3LPUVpxS1G-41" value="You see a piece of wood. Use as splint or impale yourself?" style="shape=parallelogram;perimeter=parallelogramPerimeter;whiteSpace=wrap;html=1;fixedSize=1;" parent="1" vertex="1">
          <mxGeometry x="400" y="85" width="180" height="60" as="geometry" />
        </mxCell>
        <mxCell id="7n9XsmgkcL3LPUVpxS1G-42" value="" style="edgeStyle=orthogonalEdgeStyle;rounded=0;orthogonalLoop=1;jettySize=auto;html=1;" parent="1" source="7n9XsmgkcL3LPUVpxS1G-44" target="7n9XsmgkcL3LPUVpxS1G-47" edge="1">
          <mxGeometry relative="1" as="geometry" />
        </mxCell>
        <mxCell id="7n9XsmgkcL3LPUVpxS1G-43" value="" style="edgeStyle=orthogonalEdgeStyle;rounded=0;orthogonalLoop=1;jettySize=auto;html=1;" parent="1" source="7n9XsmgkcL3LPUVpxS1G-44" edge="1">
          <mxGeometry relative="1" as="geometry">
            <mxPoint x="665" y="260" as="targetPoint" />
          </mxGeometry>
        </mxCell>
        <mxCell id="7n9XsmgkcL3LPUVpxS1G-44" value="Use as splint or save for later" style="rhombus;whiteSpace=wrap;html=1;fillColor=#d5e8d4;strokeColor=#82b366;" parent="1" vertex="1">
          <mxGeometry x="415" y="220" width="150" height="80" as="geometry" />
        </mxCell>
        <mxCell id="7n9XsmgkcL3LPUVpxS1G-45" value="Scavenge for fuel or try to start a fire with two sticks" style="rhombus;whiteSpace=wrap;html=1;fillColor=#d5e8d4;strokeColor=#82b366;" parent="1" vertex="1">
          <mxGeometry x="-480" y="370" width="110" height="80" as="geometry" />
        </mxCell>
        <mxCell id="7n9XsmgkcL3LPUVpxS1G-47" value="Your phone charges and you call for an Uber boat. The end" style="ellipse;whiteSpace=wrap;html=1;fillColor=#dae8fc;strokeColor=#6c8ebf;" parent="1" vertex="1">
          <mxGeometry x="165" y="220" width="150" height="80" as="geometry" />
        </mxCell>
        <mxCell id="7n9XsmgkcL3LPUVpxS1G-49" value="" style="edgeStyle=orthogonalEdgeStyle;rounded=0;orthogonalLoop=1;jettySize=auto;html=1;exitX=0.969;exitY=1.176;exitDx=0;exitDy=0;exitPerimeter=0;" parent="1" source="7n9XsmgkcL3LPUVpxS1G-63" target="7n9XsmgkcL3LPUVpxS1G-53" edge="1">
          <mxGeometry relative="1" as="geometry">
            <mxPoint x="1368.3099999999995" y="89.99999999999977" as="sourcePoint" />
          </mxGeometry>
        </mxCell>
        <mxCell id="7n9XsmgkcL3LPUVpxS1G-50" value="" style="edgeStyle=orthogonalEdgeStyle;rounded=0;orthogonalLoop=1;jettySize=auto;html=1;" parent="1" target="7n9XsmgkcL3LPUVpxS1G-55" edge="1">
          <mxGeometry relative="1" as="geometry">
            <mxPoint x="1448.3099999999995" y="89.99999999999977" as="sourcePoint" />
          </mxGeometry>
        </mxCell>
        <mxCell id="7n9XsmgkcL3LPUVpxS1G-52" value="" style="edgeStyle=orthogonalEdgeStyle;rounded=0;orthogonalLoop=1;jettySize=auto;html=1;" parent="1" source="7n9XsmgkcL3LPUVpxS1G-53" target="7n9XsmgkcL3LPUVpxS1G-59" edge="1">
          <mxGeometry relative="1" as="geometry" />
        </mxCell>
        <mxCell id="7n9XsmgkcL3LPUVpxS1G-53" value="There is a rocky cove with a beach and coconut trees" style="shape=parallelogram;perimeter=parallelogramPerimeter;whiteSpace=wrap;html=1;fixedSize=1;" parent="1" vertex="1">
          <mxGeometry x="955.5" y="60" width="160" height="60" as="geometry" />
        </mxCell>
        <mxCell id="7n9XsmgkcL3LPUVpxS1G-54" value="" style="edgeStyle=orthogonalEdgeStyle;rounded=0;orthogonalLoop=1;jettySize=auto;html=1;" parent="1" source="7n9XsmgkcL3LPUVpxS1G-55" target="7n9XsmgkcL3LPUVpxS1G-58" edge="1">
          <mxGeometry relative="1" as="geometry" />
        </mxCell>
        <mxCell id="7n9XsmgkcL3LPUVpxS1G-55" value="There is a forest area with some berry bushes and anthills" style="shape=parallelogram;perimeter=parallelogramPerimeter;whiteSpace=wrap;html=1;fixedSize=1;" parent="1" vertex="1">
          <mxGeometry x="1685.5" y="60" width="150" height="60" as="geometry" />
        </mxCell>
        <mxCell id="7n9XsmgkcL3LPUVpxS1G-56" value="" style="edgeStyle=orthogonalEdgeStyle;rounded=0;orthogonalLoop=1;jettySize=auto;html=1;" parent="1" source="7n9XsmgkcL3LPUVpxS1G-58" target="7n9XsmgkcL3LPUVpxS1G-61" edge="1">
          <mxGeometry relative="1" as="geometry" />
        </mxCell>
        <mxCell id="7n9XsmgkcL3LPUVpxS1G-58" value="Eat berries or live ants?" style="rhombus;whiteSpace=wrap;html=1;fillColor=#d5e8d4;strokeColor=#82b366;" parent="1" vertex="1">
          <mxGeometry x="1720.5" y="180" width="80" height="80" as="geometry" />
        </mxCell>
        <mxCell id="7n9XsmgkcL3LPUVpxS1G-59" value="Swim around or climb a tree?" style="rhombus;whiteSpace=wrap;html=1;fillColor=#d5e8d4;strokeColor=#82b366;" parent="1" vertex="1">
          <mxGeometry x="995.5" y="180" width="80" height="80" as="geometry" />
        </mxCell>
        <mxCell id="7n9XsmgkcL3LPUVpxS1G-60" value="" style="edgeStyle=orthogonalEdgeStyle;rounded=0;orthogonalLoop=1;jettySize=auto;html=1;" parent="1" source="7n9XsmgkcL3LPUVpxS1G-61" target="7n9XsmgkcL3LPUVpxS1G-66" edge="1">
          <mxGeometry relative="1" as="geometry" />
        </mxCell>
        <mxCell id="7n9XsmgkcL3LPUVpxS1G-61" value="Test if it is edible or just take a bite?" style="shape=parallelogram;perimeter=parallelogramPerimeter;whiteSpace=wrap;html=1;fixedSize=1;" parent="1" vertex="1">
          <mxGeometry x="1435.5" y="190" width="160" height="60" as="geometry" />
        </mxCell>
        <mxCell id="7n9XsmgkcL3LPUVpxS1G-62" value="Move east" style="text;html=1;align=center;verticalAlign=middle;resizable=0;points=[];autosize=1;strokeColor=none;fillColor=none;" parent="1" vertex="1">
          <mxGeometry x="1445.5" y="55" width="80" height="30" as="geometry" />
        </mxCell>
        <mxCell id="7n9XsmgkcL3LPUVpxS1G-63" value="Move west" style="text;html=1;align=center;verticalAlign=middle;resizable=0;points=[];autosize=1;strokeColor=none;fillColor=none;" parent="1" vertex="1">
          <mxGeometry x="1275.5" y="55" width="80" height="30" as="geometry" />
        </mxCell>
        <mxCell id="7n9XsmgkcL3LPUVpxS1G-64" value="" style="edgeStyle=orthogonalEdgeStyle;rounded=0;orthogonalLoop=1;jettySize=auto;html=1;" parent="1" source="7n9XsmgkcL3LPUVpxS1G-66" target="7n9XsmgkcL3LPUVpxS1G-68" edge="1">
          <mxGeometry relative="1" as="geometry" />
        </mxCell>
        <mxCell id="7n9XsmgkcL3LPUVpxS1G-65" value="" style="edgeStyle=orthogonalEdgeStyle;rounded=0;orthogonalLoop=1;jettySize=auto;html=1;" parent="1" source="7n9XsmgkcL3LPUVpxS1G-66" target="7n9XsmgkcL3LPUVpxS1G-69" edge="1">
          <mxGeometry relative="1" as="geometry" />
        </mxCell>
        <mxCell id="7n9XsmgkcL3LPUVpxS1G-66" value="Eat or check for allergies" style="rhombus;whiteSpace=wrap;html=1;fillColor=#d5e8d4;strokeColor=#82b366;" parent="1" vertex="1">
          <mxGeometry x="1475.5" y="330" width="80" height="80" as="geometry" />
        </mxCell>
        <mxCell id="7n9XsmgkcL3LPUVpxS1G-67" value="" style="edgeStyle=orthogonalEdgeStyle;rounded=0;orthogonalLoop=1;jettySize=auto;html=1;" parent="1" source="7n9XsmgkcL3LPUVpxS1G-68" target="7n9XsmgkcL3LPUVpxS1G-80" edge="1">
          <mxGeometry relative="1" as="geometry" />
        </mxCell>
        <mxCell id="7n9XsmgkcL3LPUVpxS1G-68" value="You have an allergic reaction and decide to throw the berries away." style="shape=parallelogram;perimeter=parallelogramPerimeter;whiteSpace=wrap;html=1;fixedSize=1;" parent="1" vertex="1">
          <mxGeometry x="1655.5" y="340" width="160" height="60" as="geometry" />
        </mxCell>
        <mxCell id="7n9XsmgkcL3LPUVpxS1G-69" value="Your throat closes up and you find it hard to breathe. Die of suffocation" style="shape=parallelogram;perimeter=parallelogramPerimeter;whiteSpace=wrap;html=1;fixedSize=1;" parent="1" vertex="1">
          <mxGeometry x="1195.5" y="340" width="170" height="60" as="geometry" />
        </mxCell>
        <mxCell id="7n9XsmgkcL3LPUVpxS1G-73" value="Eat berries" style="text;html=1;align=center;verticalAlign=middle;resizable=0;points=[];autosize=1;strokeColor=none;fillColor=none;" parent="1" vertex="1">
          <mxGeometry x="1640.5" y="190" width="80" height="30" as="geometry" />
        </mxCell>
        <mxCell id="7n9XsmgkcL3LPUVpxS1G-74" value="Test for poison" style="text;html=1;align=center;verticalAlign=middle;resizable=0;points=[];autosize=1;strokeColor=none;fillColor=none;" parent="1" vertex="1">
          <mxGeometry x="1555.5" y="340" width="100" height="30" as="geometry" />
        </mxCell>
        <mxCell id="7n9XsmgkcL3LPUVpxS1G-75" value="Eat without checking" style="text;html=1;align=center;verticalAlign=middle;resizable=0;points=[];autosize=1;strokeColor=none;fillColor=none;" parent="1" vertex="1">
          <mxGeometry x="1351.12" y="340" width="140" height="30" as="geometry" />
        </mxCell>
        <mxCell id="7n9XsmgkcL3LPUVpxS1G-78" value="" style="edgeStyle=orthogonalEdgeStyle;rounded=0;orthogonalLoop=1;jettySize=auto;html=1;" parent="1" source="7n9XsmgkcL3LPUVpxS1G-80" target="7n9XsmgkcL3LPUVpxS1G-84" edge="1">
          <mxGeometry relative="1" as="geometry" />
        </mxCell>
        <mxCell id="7n9XsmgkcL3LPUVpxS1G-79" value="" style="edgeStyle=orthogonalEdgeStyle;rounded=0;orthogonalLoop=1;jettySize=auto;html=1;" parent="1" source="7n9XsmgkcL3LPUVpxS1G-80" target="7n9XsmgkcL3LPUVpxS1G-82" edge="1">
          <mxGeometry relative="1" as="geometry" />
        </mxCell>
        <mxCell id="7n9XsmgkcL3LPUVpxS1G-80" value="Throw off cliff or into water?" style="rhombus;whiteSpace=wrap;html=1;fillColor=#d5e8d4;strokeColor=#82b366;" parent="1" vertex="1">
          <mxGeometry x="1695.5" y="450" width="80" height="80" as="geometry" />
        </mxCell>
        <mxCell id="7n9XsmgkcL3LPUVpxS1G-81" value="" style="edgeStyle=orthogonalEdgeStyle;rounded=0;orthogonalLoop=1;jettySize=auto;html=1;" parent="1" source="7n9XsmgkcL3LPUVpxS1G-82" target="7n9XsmgkcL3LPUVpxS1G-87" edge="1">
          <mxGeometry relative="1" as="geometry" />
        </mxCell>
        <mxCell id="7n9XsmgkcL3LPUVpxS1G-82" value="You throw the berries off a very tall cliff but fall off as well" style="shape=parallelogram;perimeter=parallelogramPerimeter;whiteSpace=wrap;html=1;fixedSize=1;" parent="1" vertex="1">
          <mxGeometry x="1914.5" y="460" width="170" height="60" as="geometry" />
        </mxCell>
        <mxCell id="7n9XsmgkcL3LPUVpxS1G-83" value="" style="edgeStyle=orthogonalEdgeStyle;rounded=0;orthogonalLoop=1;jettySize=auto;html=1;" parent="1" source="7n9XsmgkcL3LPUVpxS1G-84" target="7n9XsmgkcL3LPUVpxS1G-88" edge="1">
          <mxGeometry relative="1" as="geometry" />
        </mxCell>
        <mxCell id="7n9XsmgkcL3LPUVpxS1G-84" value="You throw the berries into a rocky cove but fall into the water" style="shape=parallelogram;perimeter=parallelogramPerimeter;whiteSpace=wrap;html=1;fixedSize=1;" parent="1" vertex="1">
          <mxGeometry x="1304.5" y="460" width="120" height="60" as="geometry" />
        </mxCell>
        <mxCell id="7n9XsmgkcL3LPUVpxS1G-85" value="" style="edgeStyle=orthogonalEdgeStyle;rounded=0;orthogonalLoop=1;jettySize=auto;html=1;" parent="1" source="7n9XsmgkcL3LPUVpxS1G-87" target="7n9XsmgkcL3LPUVpxS1G-90" edge="1">
          <mxGeometry relative="1" as="geometry" />
        </mxCell>
        <mxCell id="7n9XsmgkcL3LPUVpxS1G-86" value="" style="edgeStyle=orthogonalEdgeStyle;rounded=0;orthogonalLoop=1;jettySize=auto;html=1;" parent="1" source="7n9XsmgkcL3LPUVpxS1G-87" target="7n9XsmgkcL3LPUVpxS1G-95" edge="1">
          <mxGeometry relative="1" as="geometry" />
        </mxCell>
        <mxCell id="7n9XsmgkcL3LPUVpxS1G-87" value="Fall legs-first or head-first?" style="rhombus;whiteSpace=wrap;html=1;fillColor=#d5e8d4;strokeColor=#82b366;" parent="1" vertex="1">
          <mxGeometry x="1939.5" y="580" width="120" height="80" as="geometry" />
        </mxCell>
        <mxCell id="7n9XsmgkcL3LPUVpxS1G-88" value="Swim back to shore or dive deeper?" style="rhombus;whiteSpace=wrap;html=1;fillColor=#d5e8d4;strokeColor=#82b366;" parent="1" vertex="1">
          <mxGeometry x="1309.5" y="580" width="110" height="80" as="geometry" />
        </mxCell>
        <mxCell id="7n9XsmgkcL3LPUVpxS1G-89" value="" style="edgeStyle=orthogonalEdgeStyle;rounded=0;orthogonalLoop=1;jettySize=auto;html=1;" parent="1" source="7n9XsmgkcL3LPUVpxS1G-90" edge="1">
          <mxGeometry relative="1" as="geometry">
            <mxPoint x="2219.5" y="710" as="targetPoint" />
          </mxGeometry>
        </mxCell>
        <mxCell id="7n9XsmgkcL3LPUVpxS1G-90" value="You break both legs in your fall but survive." style="shape=parallelogram;perimeter=parallelogramPerimeter;whiteSpace=wrap;html=1;fixedSize=1;" parent="1" vertex="1">
          <mxGeometry x="2144.5" y="590" width="150" height="60" as="geometry" />
        </mxCell>
        <mxCell id="7n9XsmgkcL3LPUVpxS1G-91" value="Throw into water" style="text;html=1;align=center;verticalAlign=middle;resizable=0;points=[];autosize=1;strokeColor=none;fillColor=none;" parent="1" vertex="1">
          <mxGeometry x="1595.5" y="460" width="110" height="30" as="geometry" />
        </mxCell>
        <mxCell id="7n9XsmgkcL3LPUVpxS1G-92" value="Throw off cliff" style="text;html=1;align=center;verticalAlign=middle;resizable=0;points=[];autosize=1;strokeColor=none;fillColor=none;" parent="1" vertex="1">
          <mxGeometry x="1800.5" y="460" width="90" height="30" as="geometry" />
        </mxCell>
        <mxCell id="7n9XsmgkcL3LPUVpxS1G-93" value="Legs-first" style="text;html=1;align=center;verticalAlign=middle;resizable=0;points=[];autosize=1;strokeColor=none;fillColor=none;" parent="1" vertex="1">
          <mxGeometry x="2069.5" y="590" width="70" height="30" as="geometry" />
        </mxCell>
        <mxCell id="7n9XsmgkcL3LPUVpxS1G-94" value="Head-first" style="text;html=1;align=center;verticalAlign=middle;resizable=0;points=[];autosize=1;strokeColor=none;fillColor=none;" parent="1" vertex="1">
          <mxGeometry x="1844.5" y="585" width="80" height="30" as="geometry" />
        </mxCell>
        <mxCell id="7n9XsmgkcL3LPUVpxS1G-95" value="You fall head-first, breaking your neck and suffering instant death" style="ellipse;whiteSpace=wrap;html=1;fillColor=#dae8fc;strokeColor=#6c8ebf;" parent="1" vertex="1">
          <mxGeometry x="1705.5" y="580" width="130" height="80" as="geometry" />
        </mxCell>
        <mxCell id="7n9XsmgkcL3LPUVpxS1G-96" value="Stay still or crawl around" style="rhombus;whiteSpace=wrap;html=1;fillColor=#d5e8d4;strokeColor=#82b366;" parent="1" vertex="1">
          <mxGeometry x="2184" y="725" width="80" height="80" as="geometry" />
        </mxCell>
        <mxCell id="7n9XsmgkcL3LPUVpxS1G-107" value="Legs-first" style="text;html=1;align=center;verticalAlign=middle;resizable=0;points=[];autosize=1;strokeColor=none;fillColor=none;" parent="1" vertex="1">
          <mxGeometry x="-165" y="-185" width="70" height="30" as="geometry" />
        </mxCell>
        <mxCell id="7n9XsmgkcL3LPUVpxS1G-109" value="" style="shape=parallelogram;perimeter=parallelogramPerimeter;whiteSpace=wrap;html=1;fixedSize=1;" parent="1" vertex="1">
          <mxGeometry x="-330" y="-40" width="120" height="60" as="geometry" />
        </mxCell>
        <mxCell id="7n9XsmgkcL3LPUVpxS1G-115" value="" style="shape=parallelogram;perimeter=parallelogramPerimeter;whiteSpace=wrap;html=1;fixedSize=1;" parent="1" vertex="1">
          <mxGeometry x="-30" y="-410" width="150" height="60" as="geometry" />
        </mxCell>
        <mxCell id="b7kUcPZF2N1u_uOrU-cx-1" value="You use the piece of wood as a splint. Where do you walk now?" style="shape=parallelogram;perimeter=parallelogramPerimeter;whiteSpace=wrap;html=1;fixedSize=1;" vertex="1" parent="1">
          <mxGeometry x="653.24" y="230" width="166.76" height="60" as="geometry" />
        </mxCell>
      </root>
    </mxGraphModel>
  </diagram>
</mxfile>
